<svg width="75" height="75" viewBox="0 0 75 75" fill="none" xmlns="http://www.w3.org/2000/svg">
<path d="M34.9918 39.107L31.5281 35.8356C31.0902 35.4147 30.5431 35.2043 29.887 35.2043C29.2309 35.2043 28.6632 35.4338 28.1838 35.893C27.7459 36.3139 27.5269 36.8495 27.5269 37.5C27.5269 38.1505 27.7459 38.6861 28.1838 39.107L33.3197 44.0428C33.7974 44.502 34.3548 44.7316 34.9918 44.7316C35.6288 44.7316 36.1862 44.502 36.6639 44.0428L46.8162 34.286C47.2939 33.8268 47.5224 33.2911 47.5017 32.679C47.481 32.0668 47.2525 31.5311 46.8162 31.0719C46.3384 30.6128 45.7715 30.374 45.1154 30.3557C44.4593 30.3373 43.8915 30.5569 43.4122 31.0145L34.9918 39.107ZM28.3033 59.8834L24.8396 54.2589L18.2705 52.8814C17.6733 52.7666 17.1956 52.4705 16.8372 51.993C16.4789 51.5155 16.3396 50.989 16.4192 50.4135L17.0761 43.9281L12.5972 38.9922C12.1991 38.5713 12 38.0739 12 37.5C12 36.9261 12.1991 36.4287 12.5972 36.0078L17.0761 31.0719L16.4192 24.5865C16.3396 24.0125 16.4789 23.4861 16.8372 23.007C17.1956 22.528 17.6733 22.2318 18.2705 22.1186L24.8396 20.7411L28.3033 15.1166C28.6218 14.6192 29.0597 14.284 29.6171 14.111C30.1745 13.9381 30.7319 13.9672 31.2892 14.1983L37.5 16.7236L43.7108 14.1983C44.2682 13.9687 44.8255 13.9396 45.3829 14.111C45.9403 14.2825 46.3782 14.6176 46.6967 15.1166L50.1604 20.7411L56.7295 22.1186C57.3267 22.2334 57.8045 22.5303 58.1628 23.0093C58.5211 23.4884 58.6604 24.0141 58.5808 24.5865L57.9239 31.0719L62.4028 36.0078C62.8009 36.4287 63 36.9261 63 37.5C63 38.0739 62.8009 38.5713 62.4028 38.9922L57.9239 43.9281L58.5808 50.4135C58.6604 50.9874 58.5211 51.5139 58.1628 51.993C57.8045 52.472 57.3267 52.7682 56.7295 52.8814L50.1604 54.2589L46.6967 59.8834C46.3782 60.3808 45.9403 60.716 45.3829 60.889C44.8255 61.0619 44.2682 61.0328 43.7108 60.8017L37.5 58.2764L31.2892 60.8017C30.7319 61.0313 30.1745 61.0604 29.6171 60.889C29.0597 60.7175 28.6218 60.3824 28.3033 59.8834Z" fill="#34C759"/>
</svg>
